<?xml version="1.0" encoding="UTF-8" standalone="no"?>
<svg width="200px" height="200px" viewBox="0 0 200 200" version="1.1" xmlns="http://www.w3.org/2000/svg" xmlns:xlink="http://www.w3.org/1999/xlink" xmlns:sketch="http://www.bohemiancoding.com/sketch/ns">
    <!-- Generator: Sketch 3.4.2 (15855) - http://www.bohemiancoding.com/sketch -->
    <title>q-square-inverted</title>
    <desc>Created with Sketch.</desc>
    <defs></defs>
    <g id="Page-1" stroke="none" stroke-width="1" fill="none" fill-rule="evenodd" sketch:type="MSPage">
        <g id="q-square-inverted" sketch:type="MSLayerGroup" fill="#F9F9F9">
            <g id="Page-1" sketch:type="MSShapeGroup">
                <g id="Artboard">
                    <path d="M0,0 L200,0 L200,200 L0,200 L0,0 L0,0 Z M174.316845,154.278703 C186.097021,138.22023 193.079046,118.39522 193.079046,96.9270166 C193.079046,43.5072557 149.741602,0 96.5368663,0 C43.2896219,0 0,43.5072557 0,96.9270166 C0,150.389458 43.2896219,193.854033 96.5368663,193.854033 C117.461689,193.854033 136.866832,187.142552 152.701259,175.70956 L176.899238,200 L198.387299,178.451771 L174.316845,154.278703 L174.316845,154.278703 Z M152.478089,132.357021 L116.80812,96.5428937 L95.3466276,118.123133 L130.835935,153.739863 C120.803922,159.85382 109.066255,163.353606 96.5474935,163.353606 C60.0432953,163.353606 30.3776566,133.57341 30.3776566,96.9323517 C30.3776566,60.3286385 60.0432953,30.5057618 96.5474935,30.5057618 C132.987929,30.5057618 162.696076,60.3233035 162.696076,96.9323517 C162.696076,109.92851 158.939385,122.092403 152.478089,132.357021 L152.478089,132.357021 L152.478089,132.357021 L152.478089,132.357021 Z" id="Rectangle-1"></path>
                </g>
            </g>
        </g>
    </g>
</svg>